<svg width="134" height="32" viewBox="0 0 134 32" fill="none" xmlns="http://www.w3.org/2000/svg">
<path d="M0 0H134L123.036 16L134 32H0V0Z" fill="#BE3A26"/>
<path d="M15.352 21.668C14.596 21.668 13.8913 21.5467 13.238 21.304C12.594 21.052 12.034 20.6973 11.558 20.24C11.082 19.7827 10.7087 19.246 10.438 18.63C10.1767 18.014 10.046 17.3373 10.046 16.6C10.046 15.8627 10.1767 15.186 10.438 14.57C10.7087 13.954 11.082 13.4173 11.558 12.96C12.0433 12.5027 12.608 12.1527 13.252 11.91C13.896 11.658 14.6007 11.532 15.366 11.532C16.2153 11.532 16.9807 11.6813 17.662 11.98C18.3527 12.2693 18.9313 12.6987 19.398 13.268L17.942 14.612C17.606 14.2293 17.2327 13.9447 16.822 13.758C16.4113 13.562 15.9633 13.464 15.478 13.464C15.0207 13.464 14.6007 13.5387 14.218 13.688C13.8353 13.8373 13.504 14.052 13.224 14.332C12.944 14.612 12.7247 14.9433 12.566 15.326C12.4167 15.7087 12.342 16.1333 12.342 16.6C12.342 17.0667 12.4167 17.4913 12.566 17.874C12.7247 18.2567 12.944 18.588 13.224 18.868C13.504 19.148 13.8353 19.3627 14.218 19.512C14.6007 19.6613 15.0207 19.736 15.478 19.736C15.9633 19.736 16.4113 19.6427 16.822 19.456C17.2327 19.26 17.606 18.966 17.942 18.574L19.398 19.918C18.9313 20.4873 18.3527 20.9213 17.662 21.22C16.9807 21.5187 16.2107 21.668 15.352 21.668ZM24.0998 21.612C23.2971 21.612 22.5831 21.444 21.9578 21.108C21.3418 20.772 20.8518 20.3147 20.4878 19.736C20.1331 19.148 19.9558 18.4807 19.9558 17.734C19.9558 16.978 20.1331 16.3107 20.4878 15.732C20.8518 15.144 21.3418 14.6867 21.9578 14.36C22.5831 14.024 23.2971 13.856 24.0998 13.856C24.8931 13.856 25.6025 14.024 26.2278 14.36C26.8531 14.6867 27.3431 15.1393 27.6978 15.718C28.0525 16.2967 28.2298 16.9687 28.2298 17.734C28.2298 18.4807 28.0525 19.148 27.6978 19.736C27.3431 20.3147 26.8531 20.772 26.2278 21.108C25.6025 21.444 24.8931 21.612 24.0998 21.612ZM24.0998 19.82C24.4638 19.82 24.7905 19.736 25.0798 19.568C25.3691 19.4 25.5978 19.162 25.7658 18.854C25.9338 18.5367 26.0178 18.1633 26.0178 17.734C26.0178 17.2953 25.9338 16.922 25.7658 16.614C25.5978 16.306 25.3691 16.068 25.0798 15.9C24.7905 15.732 24.4638 15.648 24.0998 15.648C23.7358 15.648 23.4091 15.732 23.1198 15.9C22.8305 16.068 22.5971 16.306 22.4198 16.614C22.2518 16.922 22.1678 17.2953 22.1678 17.734C22.1678 18.1633 22.2518 18.5367 22.4198 18.854C22.5971 19.162 22.8305 19.4 23.1198 19.568C23.4091 19.736 23.7358 19.82 24.0998 19.82ZM39.3356 13.856C39.933 13.856 40.4603 13.9773 40.9176 14.22C41.3843 14.4533 41.7483 14.8173 42.0096 15.312C42.2803 15.7973 42.4156 16.4227 42.4156 17.188V21.5H40.2316V17.524C40.2316 16.9173 40.1056 16.4693 39.8536 16.18C39.6016 15.8907 39.247 15.746 38.7896 15.746C38.4723 15.746 38.1876 15.8207 37.9356 15.97C37.6836 16.11 37.4876 16.3247 37.3476 16.614C37.2076 16.9033 37.1376 17.272 37.1376 17.72V21.5H34.9536V17.524C34.9536 16.9173 34.8276 16.4693 34.5756 16.18C34.333 15.8907 33.983 15.746 33.5256 15.746C33.2083 15.746 32.9236 15.8207 32.6716 15.97C32.4196 16.11 32.2236 16.3247 32.0836 16.614C31.9436 16.9033 31.8736 17.272 31.8736 17.72V21.5H29.6896V13.968H31.7756V16.026L31.3836 15.424C31.645 14.9107 32.0136 14.5233 32.4896 14.262C32.975 13.9913 33.5256 13.856 34.1416 13.856C34.8323 13.856 35.4343 14.0333 35.9476 14.388C36.4703 14.7333 36.8156 15.2653 36.9836 15.984L36.2136 15.774C36.4656 15.186 36.867 14.7193 37.4176 14.374C37.9776 14.0287 38.617 13.856 39.3356 13.856ZM44.3732 21.5V13.968H46.5572V21.5H44.3732ZM45.4652 12.918C45.0639 12.918 44.7372 12.8013 44.4852 12.568C44.2332 12.3347 44.1072 12.0453 44.1072 11.7C44.1072 11.3547 44.2332 11.0653 44.4852 10.832C44.7372 10.5987 45.0639 10.482 45.4652 10.482C45.8666 10.482 46.1932 10.594 46.4452 10.818C46.6972 11.0327 46.8232 11.3127 46.8232 11.658C46.8232 12.022 46.6972 12.3253 46.4452 12.568C46.2026 12.8013 45.8759 12.918 45.4652 12.918ZM53.1622 13.856C53.7595 13.856 54.2915 13.9773 54.7582 14.22C55.2342 14.4533 55.6075 14.8173 55.8782 15.312C56.1488 15.7973 56.2842 16.4227 56.2842 17.188V21.5H54.1002V17.524C54.1002 16.9173 53.9648 16.4693 53.6942 16.18C53.4328 15.8907 53.0595 15.746 52.5742 15.746C52.2288 15.746 51.9162 15.8207 51.6362 15.97C51.3655 16.11 51.1508 16.3293 50.9922 16.628C50.8428 16.9267 50.7682 17.3093 50.7682 17.776V21.5H48.5842V13.968H50.6702V16.054L50.2782 15.424C50.5488 14.92 50.9362 14.5327 51.4402 14.262C51.9442 13.9913 52.5182 13.856 53.1622 13.856ZM61.8605 24.328C61.1512 24.328 60.4652 24.2393 59.8025 24.062C59.1492 23.894 58.6032 23.6373 58.1645 23.292L59.0325 21.724C59.3499 21.9853 59.7512 22.1907 60.2365 22.34C60.7312 22.4987 61.2165 22.578 61.6925 22.578C62.4672 22.578 63.0272 22.4053 63.3725 22.06C63.7272 21.7147 63.9045 21.2013 63.9045 20.52V19.386L64.0445 17.496L64.0165 15.592V13.968H66.0885V20.24C66.0885 21.64 65.7245 22.6713 64.9965 23.334C64.2685 23.9967 63.2232 24.328 61.8605 24.328ZM61.5245 21.136C60.8245 21.136 60.1899 20.9867 59.6205 20.688C59.0605 20.38 58.6079 19.9553 58.2625 19.414C57.9265 18.8633 57.7585 18.224 57.7585 17.496C57.7585 16.7587 57.9265 16.1193 58.2625 15.578C58.6079 15.0273 59.0605 14.6027 59.6205 14.304C60.1899 14.0053 60.8245 13.856 61.5245 13.856C62.1592 13.856 62.7192 13.9867 63.2045 14.248C63.6899 14.5 64.0679 14.8967 64.3385 15.438C64.6092 15.97 64.7445 16.656 64.7445 17.496C64.7445 18.3267 64.6092 19.0127 64.3385 19.554C64.0679 20.086 63.6899 20.4827 63.2045 20.744C62.7192 21.0053 62.1592 21.136 61.5245 21.136ZM61.9585 19.344C62.3412 19.344 62.6819 19.2693 62.9805 19.12C63.2792 18.9613 63.5125 18.742 63.6805 18.462C63.8485 18.182 63.9325 17.86 63.9325 17.496C63.9325 17.1227 63.8485 16.8007 63.6805 16.53C63.5125 16.25 63.2792 16.0353 62.9805 15.886C62.6819 15.7273 62.3412 15.648 61.9585 15.648C61.5759 15.648 61.2352 15.7273 60.9365 15.886C60.6379 16.0353 60.3999 16.25 60.2225 16.53C60.0545 16.8007 59.9705 17.1227 59.9705 17.496C59.9705 17.86 60.0545 18.182 60.2225 18.462C60.3999 18.742 60.6379 18.9613 60.9365 19.12C61.2352 19.2693 61.5759 19.344 61.9585 19.344ZM74.6201 21.612C73.9761 21.612 73.3555 21.5373 72.7581 21.388C72.1701 21.2293 71.7035 21.0333 71.3581 20.8L72.0861 19.232C72.4315 19.4467 72.8375 19.624 73.3041 19.764C73.7801 19.8947 74.2468 19.96 74.7041 19.96C75.2081 19.96 75.5628 19.8993 75.7681 19.778C75.9828 19.6567 76.0901 19.4887 76.0901 19.274C76.0901 19.0967 76.0061 18.966 75.8381 18.882C75.6795 18.7887 75.4648 18.7187 75.1941 18.672C74.9235 18.6253 74.6248 18.5787 74.2981 18.532C73.9808 18.4853 73.6588 18.4247 73.3321 18.35C73.0055 18.266 72.7068 18.1447 72.4361 17.986C72.1655 17.8273 71.9461 17.6127 71.7781 17.342C71.6195 17.0713 71.5401 16.7213 71.5401 16.292C71.5401 15.816 71.6755 15.396 71.9461 15.032C72.2261 14.668 72.6275 14.3833 73.1501 14.178C73.6728 13.9633 74.2981 13.856 75.0261 13.856C75.5395 13.856 76.0621 13.912 76.5941 14.024C77.1261 14.136 77.5695 14.2993 77.9241 14.514L77.1961 16.068C76.8321 15.8533 76.4635 15.7087 76.0901 15.634C75.7261 15.55 75.3715 15.508 75.0261 15.508C74.5408 15.508 74.1861 15.5733 73.9621 15.704C73.7381 15.8347 73.6261 16.0027 73.6261 16.208C73.6261 16.3947 73.7055 16.5347 73.8641 16.628C74.0321 16.7213 74.2515 16.796 74.5221 16.852C74.7928 16.908 75.0868 16.9593 75.4041 17.006C75.7308 17.0433 76.0575 17.104 76.3841 17.188C76.7108 17.272 77.0048 17.3933 77.2661 17.552C77.5368 17.7013 77.7561 17.9113 77.9241 18.182C78.0921 18.4433 78.1761 18.7887 78.1761 19.218C78.1761 19.6847 78.0361 20.1 77.7561 20.464C77.4761 20.8187 77.0701 21.0987 76.5381 21.304C76.0155 21.5093 75.3761 21.612 74.6201 21.612ZM83.1076 21.612C82.305 21.612 81.591 21.444 80.9656 21.108C80.3496 20.772 79.8596 20.3147 79.4956 19.736C79.141 19.148 78.9636 18.4807 78.9636 17.734C78.9636 16.978 79.141 16.3107 79.4956 15.732C79.8596 15.144 80.3496 14.6867 80.9656 14.36C81.591 14.024 82.305 13.856 83.1076 13.856C83.901 13.856 84.6103 14.024 85.2356 14.36C85.861 14.6867 86.351 15.1393 86.7056 15.718C87.0603 16.2967 87.2376 16.9687 87.2376 17.734C87.2376 18.4807 87.0603 19.148 86.7056 19.736C86.351 20.3147 85.861 20.772 85.2356 21.108C84.6103 21.444 83.901 21.612 83.1076 21.612ZM83.1076 19.82C83.4716 19.82 83.7983 19.736 84.0876 19.568C84.377 19.4 84.6056 19.162 84.7736 18.854C84.9416 18.5367 85.0256 18.1633 85.0256 17.734C85.0256 17.2953 84.9416 16.922 84.7736 16.614C84.6056 16.306 84.377 16.068 84.0876 15.9C83.7983 15.732 83.4716 15.648 83.1076 15.648C82.7436 15.648 82.417 15.732 82.1276 15.9C81.8383 16.068 81.605 16.306 81.4276 16.614C81.2596 16.922 81.1756 17.2953 81.1756 17.734C81.1756 18.1633 81.2596 18.5367 81.4276 18.854C81.605 19.162 81.8383 19.4 82.1276 19.568C82.417 19.736 82.7436 19.82 83.1076 19.82ZM92.2815 21.612C91.4788 21.612 90.7648 21.444 90.1395 21.108C89.5235 20.772 89.0335 20.3147 88.6695 19.736C88.3148 19.148 88.1375 18.4807 88.1375 17.734C88.1375 16.978 88.3148 16.3107 88.6695 15.732C89.0335 15.144 89.5235 14.6867 90.1395 14.36C90.7648 14.024 91.4788 13.856 92.2815 13.856C93.0748 13.856 93.7841 14.024 94.4095 14.36C95.0348 14.6867 95.5248 15.1393 95.8795 15.718C96.2341 16.2967 96.4115 16.9687 96.4115 17.734C96.4115 18.4807 96.2341 19.148 95.8795 19.736C95.5248 20.3147 95.0348 20.772 94.4095 21.108C93.7841 21.444 93.0748 21.612 92.2815 21.612ZM92.2815 19.82C92.6455 19.82 92.9721 19.736 93.2615 19.568C93.5508 19.4 93.7795 19.162 93.9475 18.854C94.1155 18.5367 94.1995 18.1633 94.1995 17.734C94.1995 17.2953 94.1155 16.922 93.9475 16.614C93.7795 16.306 93.5508 16.068 93.2615 15.9C92.9721 15.732 92.6455 15.648 92.2815 15.648C91.9175 15.648 91.5908 15.732 91.3015 15.9C91.0121 16.068 90.7788 16.306 90.6015 16.614C90.4335 16.922 90.3495 17.2953 90.3495 17.734C90.3495 18.1633 90.4335 18.5367 90.6015 18.854C90.7788 19.162 91.0121 19.4 91.3015 19.568C91.5908 19.736 91.9175 19.82 92.2815 19.82ZM102.449 13.856C103.047 13.856 103.579 13.9773 104.045 14.22C104.521 14.4533 104.895 14.8173 105.165 15.312C105.436 15.7973 105.571 16.4227 105.571 17.188V21.5H103.387V17.524C103.387 16.9173 103.252 16.4693 102.981 16.18C102.72 15.8907 102.347 15.746 101.861 15.746C101.516 15.746 101.203 15.8207 100.923 15.97C100.653 16.11 100.438 16.3293 100.279 16.628C100.13 16.9267 100.055 17.3093 100.055 17.776V21.5H97.8713V13.968H99.9573V16.054L99.5653 15.424C99.8359 14.92 100.223 14.5327 100.727 14.262C101.231 13.9913 101.805 13.856 102.449 13.856Z" fill="white"/>
</svg>
