<svg width="110" height="32" viewBox="0 0 110 32" fill="none" xmlns="http://www.w3.org/2000/svg">
<path d="M0 0H110L101 16L110 32H0V0Z" fill="#BE3A26"/>
<path d="M15.352 21.668C14.596 21.668 13.8913 21.5467 13.238 21.304C12.594 21.052 12.034 20.6973 11.558 20.24C11.082 19.7827 10.7087 19.246 10.438 18.63C10.1767 18.014 10.046 17.3373 10.046 16.6C10.046 15.8627 10.1767 15.186 10.438 14.57C10.7087 13.954 11.082 13.4173 11.558 12.96C12.0433 12.5027 12.608 12.1527 13.252 11.91C13.896 11.658 14.6007 11.532 15.366 11.532C16.2153 11.532 16.9807 11.6813 17.662 11.98C18.3527 12.2693 18.9313 12.6987 19.398 13.268L17.942 14.612C17.606 14.2293 17.2327 13.9447 16.822 13.758C16.4113 13.562 15.9633 13.464 15.478 13.464C15.0207 13.464 14.6007 13.5387 14.218 13.688C13.8353 13.8373 13.504 14.052 13.224 14.332C12.944 14.612 12.7247 14.9433 12.566 15.326C12.4167 15.7087 12.342 16.1333 12.342 16.6C12.342 17.0667 12.4167 17.4913 12.566 17.874C12.7247 18.2567 12.944 18.588 13.224 18.868C13.504 19.148 13.8353 19.3627 14.218 19.512C14.6007 19.6613 15.0207 19.736 15.478 19.736C15.9633 19.736 16.4113 19.6427 16.822 19.456C17.2327 19.26 17.606 18.966 17.942 18.574L19.398 19.918C18.9313 20.4873 18.3527 20.9213 17.662 21.22C16.9807 21.5187 16.2107 21.668 15.352 21.668ZM24.0998 21.612C23.2971 21.612 22.5831 21.444 21.9578 21.108C21.3418 20.772 20.8518 20.3147 20.4878 19.736C20.1331 19.148 19.9558 18.4807 19.9558 17.734C19.9558 16.978 20.1331 16.3107 20.4878 15.732C20.8518 15.144 21.3418 14.6867 21.9578 14.36C22.5831 14.024 23.2971 13.856 24.0998 13.856C24.8931 13.856 25.6025 14.024 26.2278 14.36C26.8531 14.6867 27.3431 15.1393 27.6978 15.718C28.0525 16.2967 28.2298 16.9687 28.2298 17.734C28.2298 18.4807 28.0525 19.148 27.6978 19.736C27.3431 20.3147 26.8531 20.772 26.2278 21.108C25.6025 21.444 24.8931 21.612 24.0998 21.612ZM24.0998 19.82C24.4638 19.82 24.7905 19.736 25.0798 19.568C25.3691 19.4 25.5978 19.162 25.7658 18.854C25.9338 18.5367 26.0178 18.1633 26.0178 17.734C26.0178 17.2953 25.9338 16.922 25.7658 16.614C25.5978 16.306 25.3691 16.068 25.0798 15.9C24.7905 15.732 24.4638 15.648 24.0998 15.648C23.7358 15.648 23.4091 15.732 23.1198 15.9C22.8305 16.068 22.5971 16.306 22.4198 16.614C22.2518 16.922 22.1678 17.2953 22.1678 17.734C22.1678 18.1633 22.2518 18.5367 22.4198 18.854C22.5971 19.162 22.8305 19.4 23.1198 19.568C23.4091 19.736 23.7358 19.82 24.0998 19.82ZM39.3356 13.856C39.933 13.856 40.4603 13.9773 40.9176 14.22C41.3843 14.4533 41.7483 14.8173 42.0096 15.312C42.2803 15.7973 42.4156 16.4227 42.4156 17.188V21.5H40.2316V17.524C40.2316 16.9173 40.1056 16.4693 39.8536 16.18C39.6016 15.8907 39.247 15.746 38.7896 15.746C38.4723 15.746 38.1876 15.8207 37.9356 15.97C37.6836 16.11 37.4876 16.3247 37.3476 16.614C37.2076 16.9033 37.1376 17.272 37.1376 17.72V21.5H34.9536V17.524C34.9536 16.9173 34.8276 16.4693 34.5756 16.18C34.333 15.8907 33.983 15.746 33.5256 15.746C33.2083 15.746 32.9236 15.8207 32.6716 15.97C32.4196 16.11 32.2236 16.3247 32.0836 16.614C31.9436 16.9033 31.8736 17.272 31.8736 17.72V21.5H29.6896V13.968H31.7756V16.026L31.3836 15.424C31.645 14.9107 32.0136 14.5233 32.4896 14.262C32.975 13.9913 33.5256 13.856 34.1416 13.856C34.8323 13.856 35.4343 14.0333 35.9476 14.388C36.4703 14.7333 36.8156 15.2653 36.9836 15.984L36.2136 15.774C36.4656 15.186 36.867 14.7193 37.4176 14.374C37.9776 14.0287 38.617 13.856 39.3356 13.856ZM48.8252 21.612C48.1906 21.612 47.6352 21.472 47.1592 21.192C46.6832 20.912 46.3099 20.4873 46.0392 19.918C45.7779 19.3393 45.6472 18.6113 45.6472 17.734C45.6472 16.8473 45.7732 16.1193 46.0252 15.55C46.2772 14.9807 46.6412 14.556 47.1172 14.276C47.5932 13.996 48.1626 13.856 48.8252 13.856C49.5346 13.856 50.1692 14.0193 50.7292 14.346C51.2986 14.6633 51.7466 15.1113 52.0732 15.69C52.4092 16.2687 52.5772 16.95 52.5772 17.734C52.5772 18.5273 52.4092 19.2133 52.0732 19.792C51.7466 20.3707 51.2986 20.8187 50.7292 21.136C50.1692 21.4533 49.5346 21.612 48.8252 21.612ZM44.3732 24.216V13.968H46.4592V15.508L46.4172 17.748L46.5572 19.974V24.216H44.3732ZM48.4472 19.82C48.8112 19.82 49.1332 19.736 49.4132 19.568C49.7026 19.4 49.9312 19.162 50.0992 18.854C50.2766 18.5367 50.3652 18.1633 50.3652 17.734C50.3652 17.2953 50.2766 16.922 50.0992 16.614C49.9312 16.306 49.7026 16.068 49.4132 15.9C49.1332 15.732 48.8112 15.648 48.4472 15.648C48.0832 15.648 47.7566 15.732 47.4672 15.9C47.1779 16.068 46.9492 16.306 46.7812 16.614C46.6132 16.922 46.5292 17.2953 46.5292 17.734C46.5292 18.1633 46.6132 18.5367 46.7812 18.854C46.9492 19.162 47.1779 19.4 47.4672 19.568C47.7566 19.736 48.0832 19.82 48.4472 19.82ZM54.0393 21.5V11.112H56.2233V21.5H54.0393ZM61.9882 21.612C61.1295 21.612 60.3735 21.444 59.7202 21.108C59.0762 20.772 58.5769 20.3147 58.2222 19.736C57.8675 19.148 57.6902 18.4807 57.6902 17.734C57.6902 16.978 57.8629 16.3107 58.2082 15.732C58.5629 15.144 59.0435 14.6867 59.6502 14.36C60.2569 14.024 60.9429 13.856 61.7082 13.856C62.4455 13.856 63.1082 14.0147 63.6962 14.332C64.2935 14.64 64.7649 15.088 65.1102 15.676C65.4555 16.2547 65.6282 16.95 65.6282 17.762C65.6282 17.846 65.6235 17.944 65.6142 18.056C65.6049 18.1587 65.5955 18.2567 65.5862 18.35H59.4682V17.076H64.4382L63.5982 17.454C63.5982 17.062 63.5189 16.7213 63.3602 16.432C63.2015 16.1427 62.9822 15.9187 62.7022 15.76C62.4222 15.592 62.0955 15.508 61.7222 15.508C61.3489 15.508 61.0175 15.592 60.7282 15.76C60.4482 15.9187 60.2289 16.1473 60.0702 16.446C59.9115 16.7353 59.8322 17.0807 59.8322 17.482V17.818C59.8322 18.2287 59.9209 18.5927 60.0982 18.91C60.2849 19.218 60.5415 19.456 60.8682 19.624C61.2042 19.7827 61.5962 19.862 62.0442 19.862C62.4455 19.862 62.7955 19.8013 63.0942 19.68C63.4022 19.5587 63.6822 19.3767 63.9342 19.134L65.0962 20.394C64.7509 20.786 64.3169 21.0893 63.7942 21.304C63.2715 21.5093 62.6695 21.612 61.9882 21.612ZM70.1622 21.612C69.2756 21.612 68.5849 21.388 68.0902 20.94C67.5956 20.4827 67.3482 19.806 67.3482 18.91V12.302H69.5322V18.882C69.5322 19.1993 69.6162 19.4467 69.7842 19.624C69.9522 19.792 70.1809 19.876 70.4702 19.876C70.8156 19.876 71.1096 19.7827 71.3522 19.596L71.9402 21.136C71.7162 21.2947 71.4456 21.416 71.1282 21.5C70.8202 21.5747 70.4982 21.612 70.1622 21.612ZM66.1862 15.816V14.136H71.4082V15.816H66.1862ZM76.6718 21.612C75.8131 21.612 75.0571 21.444 74.4038 21.108C73.7598 20.772 73.2604 20.3147 72.9058 19.736C72.5511 19.148 72.3738 18.4807 72.3738 17.734C72.3738 16.978 72.5464 16.3107 72.8918 15.732C73.2464 15.144 73.7271 14.6867 74.3338 14.36C74.9404 14.024 75.6264 13.856 76.3918 13.856C77.1291 13.856 77.7918 14.0147 78.3798 14.332C78.9771 14.64 79.4484 15.088 79.7938 15.676C80.1391 16.2547 80.3118 16.95 80.3118 17.762C80.3118 17.846 80.3071 17.944 80.2978 18.056C80.2884 18.1587 80.2791 18.2567 80.2698 18.35H74.1518V17.076H79.1218L78.2818 17.454C78.2818 17.062 78.2024 16.7213 78.0438 16.432C77.8851 16.1427 77.6658 15.9187 77.3858 15.76C77.1058 15.592 76.7791 15.508 76.4058 15.508C76.0324 15.508 75.7011 15.592 75.4118 15.76C75.1318 15.9187 74.9124 16.1473 74.7538 16.446C74.5951 16.7353 74.5158 17.0807 74.5158 17.482V17.818C74.5158 18.2287 74.6044 18.5927 74.7818 18.91C74.9684 19.218 75.2251 19.456 75.5518 19.624C75.8878 19.7827 76.2798 19.862 76.7278 19.862C77.1291 19.862 77.4791 19.8013 77.7778 19.68C78.0858 19.5587 78.3658 19.3767 78.6178 19.134L79.7798 20.394C79.4344 20.786 79.0004 21.0893 78.4778 21.304C77.9551 21.5093 77.3531 21.612 76.6718 21.612ZM84.9998 21.612C84.2905 21.612 83.6511 21.4533 83.0818 21.136C82.5125 20.8093 82.0598 20.3567 81.7238 19.778C81.3971 19.1993 81.2338 18.518 81.2338 17.734C81.2338 16.9407 81.3971 16.2547 81.7238 15.676C82.0598 15.0973 82.5125 14.6493 83.0818 14.332C83.6511 14.0147 84.2905 13.856 84.9998 13.856C85.6345 13.856 86.1898 13.996 86.6658 14.276C87.1418 14.556 87.5105 14.9807 87.7718 15.55C88.0331 16.1193 88.1638 16.8473 88.1638 17.734C88.1638 18.6113 88.0378 19.3393 87.7858 19.918C87.5338 20.4873 87.1698 20.912 86.6938 21.192C86.2271 21.472 85.6625 21.612 84.9998 21.612ZM85.3778 19.82C85.7325 19.82 86.0545 19.736 86.3438 19.568C86.6331 19.4 86.8618 19.162 87.0298 18.854C87.2071 18.5367 87.2958 18.1633 87.2958 17.734C87.2958 17.2953 87.2071 16.922 87.0298 16.614C86.8618 16.306 86.6331 16.068 86.3438 15.9C86.0545 15.732 85.7325 15.648 85.3778 15.648C85.0138 15.648 84.6871 15.732 84.3978 15.9C84.1085 16.068 83.8751 16.306 83.6978 16.614C83.5298 16.922 83.4458 17.2953 83.4458 17.734C83.4458 18.1633 83.5298 18.5367 83.6978 18.854C83.8751 19.162 84.1085 19.4 84.3978 19.568C84.6871 19.736 85.0138 19.82 85.3778 19.82ZM87.3518 21.5V19.96L87.3938 17.72L87.2538 15.494V11.112H89.4378V21.5H87.3518Z" fill="white"/>
</svg>
