<svg width="110" height="32" viewBox="0 0 110 32" fill="none" xmlns="http://www.w3.org/2000/svg">
<path d="M0 0H110L101 16L110 32H0V0Z" fill="#BE3A26"/>
<path d="M13.882 21.668C13.098 21.668 12.3467 21.5653 11.628 21.36C10.9093 21.1453 10.3307 20.87 9.892 20.534L10.662 18.826C11.082 19.1247 11.5767 19.372 12.146 19.568C12.7247 19.7547 13.308 19.848 13.896 19.848C14.344 19.848 14.7033 19.806 14.974 19.722C15.254 19.6287 15.4593 19.5027 15.59 19.344C15.7207 19.1853 15.786 19.0033 15.786 18.798C15.786 18.5367 15.6833 18.3313 15.478 18.182C15.2727 18.0233 15.002 17.8973 14.666 17.804C14.33 17.7013 13.9567 17.608 13.546 17.524C13.1447 17.4307 12.7387 17.3187 12.328 17.188C11.9267 17.0573 11.558 16.8893 11.222 16.684C10.886 16.4787 10.6107 16.208 10.396 15.872C10.1907 15.536 10.088 15.1067 10.088 14.584C10.088 14.024 10.2373 13.5153 10.536 13.058C10.844 12.5913 11.3013 12.2227 11.908 11.952C12.524 11.672 13.294 11.532 14.218 11.532C14.834 11.532 15.4407 11.6067 16.038 11.756C16.6353 11.896 17.1627 12.1107 17.62 12.4L16.92 14.122C16.4627 13.8607 16.0053 13.6693 15.548 13.548C15.0907 13.4173 14.6427 13.352 14.204 13.352C13.7653 13.352 13.406 13.4033 13.126 13.506C12.846 13.6087 12.6453 13.744 12.524 13.912C12.4027 14.0707 12.342 14.2573 12.342 14.472C12.342 14.724 12.4447 14.9293 12.65 15.088C12.8553 15.2373 13.126 15.3587 13.462 15.452C13.798 15.5453 14.1667 15.6387 14.568 15.732C14.9787 15.8253 15.3847 15.9327 15.786 16.054C16.1967 16.1753 16.57 16.3387 16.906 16.544C17.242 16.7493 17.5127 17.02 17.718 17.356C17.9327 17.692 18.04 18.1167 18.04 18.63C18.04 19.1807 17.886 19.6847 17.578 20.142C17.27 20.5993 16.808 20.968 16.192 21.248C15.5853 21.528 14.8153 21.668 13.882 21.668ZM23.0197 21.612C22.2171 21.612 21.5031 21.444 20.8777 21.108C20.2617 20.772 19.7717 20.3147 19.4077 19.736C19.0531 19.148 18.8757 18.4807 18.8757 17.734C18.8757 16.978 19.0531 16.3107 19.4077 15.732C19.7717 15.144 20.2617 14.6867 20.8777 14.36C21.5031 14.024 22.2171 13.856 23.0197 13.856C23.8131 13.856 24.5224 14.024 25.1477 14.36C25.7731 14.6867 26.2631 15.1393 26.6177 15.718C26.9724 16.2967 27.1497 16.9687 27.1497 17.734C27.1497 18.4807 26.9724 19.148 26.6177 19.736C26.2631 20.3147 25.7731 20.772 25.1477 21.108C24.5224 21.444 23.8131 21.612 23.0197 21.612ZM23.0197 19.82C23.3837 19.82 23.7104 19.736 23.9997 19.568C24.2891 19.4 24.5177 19.162 24.6857 18.854C24.8537 18.5367 24.9377 18.1633 24.9377 17.734C24.9377 17.2953 24.8537 16.922 24.6857 16.614C24.5177 16.306 24.2891 16.068 23.9997 15.9C23.7104 15.732 23.3837 15.648 23.0197 15.648C22.6557 15.648 22.3291 15.732 22.0397 15.9C21.7504 16.068 21.5171 16.306 21.3397 16.614C21.1717 16.922 21.0877 17.2953 21.0877 17.734C21.0877 18.1633 21.1717 18.5367 21.3397 18.854C21.5171 19.162 21.7504 19.4 22.0397 19.568C22.3291 19.736 22.6557 19.82 23.0197 19.82ZM28.6096 21.5V11.112H30.7936V21.5H28.6096ZM36.0545 21.612C35.3452 21.612 34.7058 21.4533 34.1365 21.136C33.5672 20.8093 33.1145 20.3567 32.7785 19.778C32.4518 19.1993 32.2885 18.518 32.2885 17.734C32.2885 16.9407 32.4518 16.2547 32.7785 15.676C33.1145 15.0973 33.5672 14.6493 34.1365 14.332C34.7058 14.0147 35.3452 13.856 36.0545 13.856C36.6892 13.856 37.2445 13.996 37.7205 14.276C38.1965 14.556 38.5652 14.9807 38.8265 15.55C39.0878 16.1193 39.2185 16.8473 39.2185 17.734C39.2185 18.6113 39.0925 19.3393 38.8405 19.918C38.5885 20.4873 38.2245 20.912 37.7485 21.192C37.2818 21.472 36.7172 21.612 36.0545 21.612ZM36.4325 19.82C36.7872 19.82 37.1092 19.736 37.3985 19.568C37.6878 19.4 37.9165 19.162 38.0845 18.854C38.2618 18.5367 38.3505 18.1633 38.3505 17.734C38.3505 17.2953 38.2618 16.922 38.0845 16.614C37.9165 16.306 37.6878 16.068 37.3985 15.9C37.1092 15.732 36.7872 15.648 36.4325 15.648C36.0685 15.648 35.7418 15.732 35.4525 15.9C35.1632 16.068 34.9298 16.306 34.7525 16.614C34.5845 16.922 34.5005 17.2953 34.5005 17.734C34.5005 18.1633 34.5845 18.5367 34.7525 18.854C34.9298 19.162 35.1632 19.4 35.4525 19.568C35.7418 19.736 36.0685 19.82 36.4325 19.82ZM38.4065 21.5V19.96L38.4485 17.72L38.3085 15.494V11.112H40.4925V21.5H38.4065ZM51.3927 21.668C50.618 21.668 49.8994 21.542 49.2367 21.29C48.5834 21.038 48.014 20.6833 47.5287 20.226C47.0527 19.7687 46.6794 19.232 46.4087 18.616C46.1474 18 46.0167 17.328 46.0167 16.6C46.0167 15.872 46.1474 15.2 46.4087 14.584C46.6794 13.968 47.0574 13.4313 47.5427 12.974C48.028 12.5167 48.5974 12.162 49.2507 11.91C49.904 11.658 50.6134 11.532 51.3787 11.532C52.1534 11.532 52.8627 11.658 53.5067 11.91C54.16 12.162 54.7247 12.5167 55.2007 12.974C55.686 13.4313 56.064 13.968 56.3347 14.584C56.6054 15.1907 56.7407 15.8627 56.7407 16.6C56.7407 17.328 56.6054 18.0047 56.3347 18.63C56.064 19.246 55.686 19.7827 55.2007 20.24C54.7247 20.688 54.16 21.038 53.5067 21.29C52.8627 21.542 52.158 21.668 51.3927 21.668ZM51.3787 19.736C51.8174 19.736 52.2187 19.6613 52.5827 19.512C52.956 19.3627 53.2827 19.148 53.5627 18.868C53.8427 18.588 54.0574 18.2567 54.2067 17.874C54.3654 17.4913 54.4447 17.0667 54.4447 16.6C54.4447 16.1333 54.3654 15.7087 54.2067 15.326C54.0574 14.9433 53.8427 14.612 53.5627 14.332C53.292 14.052 52.97 13.8373 52.5967 13.688C52.2234 13.5387 51.8174 13.464 51.3787 13.464C50.94 13.464 50.534 13.5387 50.1607 13.688C49.7967 13.8373 49.4747 14.052 49.1947 14.332C48.9147 14.612 48.6954 14.9433 48.5367 15.326C48.3874 15.7087 48.3127 16.1333 48.3127 16.6C48.3127 17.0573 48.3874 17.482 48.5367 17.874C48.6954 18.2567 48.91 18.588 49.1807 18.868C49.4607 19.148 49.7874 19.3627 50.1607 19.512C50.534 19.6613 50.94 19.736 51.3787 19.736ZM61.4692 21.612C60.8439 21.612 60.2839 21.4907 59.7892 21.248C59.3039 21.0053 58.9259 20.6367 58.6552 20.142C58.3845 19.638 58.2492 18.9987 58.2492 18.224V13.968H60.4332V17.902C60.4332 18.5273 60.5639 18.9893 60.8252 19.288C61.0959 19.5773 61.4739 19.722 61.9592 19.722C62.2952 19.722 62.5939 19.652 62.8552 19.512C63.1165 19.3627 63.3219 19.1387 63.4712 18.84C63.6205 18.532 63.6952 18.1493 63.6952 17.692V13.968H65.8792V21.5H63.8072V19.428L64.1852 20.03C63.9332 20.5527 63.5599 20.9493 63.0652 21.22C62.5799 21.4813 62.0479 21.612 61.4692 21.612ZM70.9825 21.612C70.0959 21.612 69.4052 21.388 68.9105 20.94C68.4159 20.4827 68.1685 19.806 68.1685 18.91V12.302H70.3525V18.882C70.3525 19.1993 70.4365 19.4467 70.6045 19.624C70.7725 19.792 71.0012 19.876 71.2905 19.876C71.6359 19.876 71.9299 19.7827 72.1725 19.596L72.7605 21.136C72.5365 21.2947 72.2659 21.416 71.9485 21.5C71.6405 21.5747 71.3185 21.612 70.9825 21.612ZM67.0065 15.816V14.136H72.2285V15.816H67.0065Z" fill="white"/>
</svg>
