<svg width="49" height="49" viewBox="0 0 49 49" fill="none" xmlns="http://www.w3.org/2000/svg">
<rect x="0.167969" width="48.161" height="48.161" rx="24.0805" fill="#444444"/>
<path fill-rule="evenodd" clip-rule="evenodd" d="M20.7697 16V25.5593C20.7697 26.6639 21.6651 27.5593 22.7697 27.5593H32.329C33.4336 27.5593 34.329 26.6639 34.329 25.5593V16C34.329 14.8954 33.4336 14 32.329 14H22.7697C21.6651 14 20.7697 14.8954 20.7697 16ZM16.668 20.6186C15.2873 20.6186 14.168 21.7379 14.168 23.1186V31.661C14.168 33.0417 15.2873 34.161 16.668 34.161H25.2103C26.5911 34.161 27.7103 33.0417 27.7103 31.661V29.5932C27.7103 29.3171 27.4865 29.0932 27.2103 29.0932C26.9342 29.0932 26.7103 29.3171 26.7103 29.5932V31.661C26.7103 32.4894 26.0388 33.161 25.2103 33.161H16.668C15.8395 33.161 15.168 32.4894 15.168 31.661V23.1186C15.168 22.2902 15.8395 21.6186 16.668 21.6186H18.7358C19.0119 21.6186 19.2358 21.3948 19.2358 21.1186C19.2358 20.8425 19.0119 20.6186 18.7358 20.6186H16.668Z" fill="#F1F5F9"/>
</svg>
