<svg width="110" height="32" viewBox="0 0 110 32" fill="none" xmlns="http://www.w3.org/2000/svg">
<path d="M0 0H110L101 16L110 32H0V0Z" fill="#BE3A26"/>
<path d="M12.762 16.11H17.466V17.93H12.762V16.11ZM12.93 21.5H10.662V11.7H18.068V13.52H12.93V21.5ZM22.8557 21.612C22.053 21.612 21.339 21.444 20.7137 21.108C20.0977 20.772 19.6077 20.3147 19.2437 19.736C18.889 19.148 18.7117 18.4807 18.7117 17.734C18.7117 16.978 18.889 16.3107 19.2437 15.732C19.6077 15.144 20.0977 14.6867 20.7137 14.36C21.339 14.024 22.053 13.856 22.8557 13.856C23.649 13.856 24.3583 14.024 24.9837 14.36C25.609 14.6867 26.099 15.1393 26.4537 15.718C26.8083 16.2967 26.9857 16.9687 26.9857 17.734C26.9857 18.4807 26.8083 19.148 26.4537 19.736C26.099 20.3147 25.609 20.772 24.9837 21.108C24.3583 21.444 23.649 21.612 22.8557 21.612ZM22.8557 19.82C23.2197 19.82 23.5463 19.736 23.8357 19.568C24.125 19.4 24.3537 19.162 24.5217 18.854C24.6897 18.5367 24.7737 18.1633 24.7737 17.734C24.7737 17.2953 24.6897 16.922 24.5217 16.614C24.3537 16.306 24.125 16.068 23.8357 15.9C23.5463 15.732 23.2197 15.648 22.8557 15.648C22.4917 15.648 22.165 15.732 21.8757 15.9C21.5863 16.068 21.353 16.306 21.1757 16.614C21.0077 16.922 20.9237 17.2953 20.9237 17.734C20.9237 18.1633 21.0077 18.5367 21.1757 18.854C21.353 19.162 21.5863 19.4 21.8757 19.568C22.165 19.736 22.4917 19.82 22.8557 19.82ZM28.4455 21.5V13.968H30.5315V16.096L30.2375 15.48C30.4615 14.948 30.8208 14.5467 31.3155 14.276C31.8102 13.996 32.4122 13.856 33.1215 13.856V15.872C33.0282 15.8627 32.9442 15.858 32.8695 15.858C32.7948 15.8487 32.7155 15.844 32.6315 15.844C32.0342 15.844 31.5488 16.0167 31.1755 16.362C30.8115 16.698 30.6295 17.2253 30.6295 17.944V21.5H28.4455ZM41.8136 21.668C41.0296 21.668 40.2783 21.5653 39.5596 21.36C38.841 21.1453 38.2623 20.87 37.8236 20.534L38.5936 18.826C39.0136 19.1247 39.5083 19.372 40.0776 19.568C40.6563 19.7547 41.2396 19.848 41.8276 19.848C42.2756 19.848 42.635 19.806 42.9056 19.722C43.1856 19.6287 43.391 19.5027 43.5216 19.344C43.6523 19.1853 43.7176 19.0033 43.7176 18.798C43.7176 18.5367 43.615 18.3313 43.4096 18.182C43.2043 18.0233 42.9336 17.8973 42.5976 17.804C42.2616 17.7013 41.8883 17.608 41.4776 17.524C41.0763 17.4307 40.6703 17.3187 40.2596 17.188C39.8583 17.0573 39.4896 16.8893 39.1536 16.684C38.8176 16.4787 38.5423 16.208 38.3276 15.872C38.1223 15.536 38.0196 15.1067 38.0196 14.584C38.0196 14.024 38.169 13.5153 38.4676 13.058C38.7756 12.5913 39.233 12.2227 39.8396 11.952C40.4556 11.672 41.2256 11.532 42.1496 11.532C42.7656 11.532 43.3723 11.6067 43.9696 11.756C44.567 11.896 45.0943 12.1107 45.5516 12.4L44.8516 14.122C44.3943 13.8607 43.937 13.6693 43.4796 13.548C43.0223 13.4173 42.5743 13.352 42.1356 13.352C41.697 13.352 41.3376 13.4033 41.0576 13.506C40.7776 13.6087 40.577 13.744 40.4556 13.912C40.3343 14.0707 40.2736 14.2573 40.2736 14.472C40.2736 14.724 40.3763 14.9293 40.5816 15.088C40.787 15.2373 41.0576 15.3587 41.3936 15.452C41.7296 15.5453 42.0983 15.6387 42.4996 15.732C42.9103 15.8253 43.3163 15.9327 43.7176 16.054C44.1283 16.1753 44.5016 16.3387 44.8376 16.544C45.1736 16.7493 45.4443 17.02 45.6496 17.356C45.8643 17.692 45.9716 18.1167 45.9716 18.63C45.9716 19.1807 45.8176 19.6847 45.5096 20.142C45.2016 20.5993 44.7396 20.968 44.1236 21.248C43.517 21.528 42.747 21.668 41.8136 21.668ZM51.9874 21.5V20.03L51.8474 19.708V17.076C51.8474 16.6093 51.7027 16.2453 51.4134 15.984C51.1334 15.7227 50.6994 15.592 50.1114 15.592C49.71 15.592 49.3134 15.6573 48.9214 15.788C48.5387 15.9093 48.212 16.0773 47.9414 16.292L47.1574 14.766C47.568 14.4767 48.0627 14.2527 48.6414 14.094C49.22 13.9353 49.808 13.856 50.4054 13.856C51.5534 13.856 52.4447 14.1267 53.0794 14.668C53.714 15.2093 54.0314 16.054 54.0314 17.202V21.5H51.9874ZM49.6914 21.612C49.1034 21.612 48.5994 21.514 48.1794 21.318C47.7594 21.1127 47.4374 20.8373 47.2134 20.492C46.9894 20.1467 46.8774 19.7593 46.8774 19.33C46.8774 18.882 46.9847 18.49 47.1994 18.154C47.4234 17.818 47.7734 17.5567 48.2494 17.37C48.7254 17.174 49.346 17.076 50.1114 17.076H52.1134V18.35H50.3494C49.836 18.35 49.4814 18.434 49.2854 18.602C49.0987 18.77 49.0054 18.98 49.0054 19.232C49.0054 19.512 49.1127 19.736 49.3274 19.904C49.5514 20.0627 49.8547 20.142 50.2374 20.142C50.6014 20.142 50.928 20.058 51.2174 19.89C51.5067 19.7127 51.7167 19.456 51.8474 19.12L52.1834 20.128C52.0247 20.6133 51.7354 20.982 51.3154 21.234C50.8954 21.486 50.354 21.612 49.6914 21.612ZM56.008 21.5V11.112H58.192V21.5H56.008ZM63.9569 21.612C63.0983 21.612 62.3423 21.444 61.6889 21.108C61.0449 20.772 60.5456 20.3147 60.1909 19.736C59.8363 19.148 59.6589 18.4807 59.6589 17.734C59.6589 16.978 59.8316 16.3107 60.1769 15.732C60.5316 15.144 61.0123 14.6867 61.6189 14.36C62.2256 14.024 62.9116 13.856 63.6769 13.856C64.4143 13.856 65.0769 14.0147 65.6649 14.332C66.2623 14.64 66.7336 15.088 67.0789 15.676C67.4243 16.2547 67.5969 16.95 67.5969 17.762C67.5969 17.846 67.5923 17.944 67.5829 18.056C67.5736 18.1587 67.5643 18.2567 67.5549 18.35H61.4369V17.076H66.4069L65.5669 17.454C65.5669 17.062 65.4876 16.7213 65.3289 16.432C65.1703 16.1427 64.9509 15.9187 64.6709 15.76C64.3909 15.592 64.0643 15.508 63.6909 15.508C63.3176 15.508 62.9863 15.592 62.6969 15.76C62.4169 15.9187 62.1976 16.1473 62.0389 16.446C61.8803 16.7353 61.8009 17.0807 61.8009 17.482V17.818C61.8009 18.2287 61.8896 18.5927 62.0669 18.91C62.2536 19.218 62.5103 19.456 62.8369 19.624C63.1729 19.7827 63.5649 19.862 64.0129 19.862C64.4143 19.862 64.7643 19.8013 65.0629 19.68C65.3709 19.5587 65.6509 19.3767 65.9029 19.134L67.0649 20.394C66.7196 20.786 66.2856 21.0893 65.7629 21.304C65.2403 21.5093 64.6383 21.612 63.9569 21.612Z" fill="white"/>
</svg>
