<svg width="110" height="32" viewBox="0 0 110 32" fill="none" xmlns="http://www.w3.org/2000/svg">
<path d="M0 0H110L101 16L110 32H0V0Z" fill="#BE3A26"/>
<path d="M15.422 21.668C14.6473 21.668 13.9287 21.542 13.266 21.29C12.6127 21.038 12.0433 20.6833 11.558 20.226C11.082 19.7687 10.7087 19.232 10.438 18.616C10.1767 18 10.046 17.328 10.046 16.6C10.046 15.872 10.1767 15.2 10.438 14.584C10.7087 13.968 11.0867 13.4313 11.572 12.974C12.0573 12.5167 12.6267 12.162 13.28 11.91C13.9333 11.658 14.6427 11.532 15.408 11.532C16.1827 11.532 16.892 11.658 17.536 11.91C18.1893 12.162 18.754 12.5167 19.23 12.974C19.7153 13.4313 20.0933 13.968 20.364 14.584C20.6347 15.1907 20.77 15.8627 20.77 16.6C20.77 17.328 20.6347 18.0047 20.364 18.63C20.0933 19.246 19.7153 19.7827 19.23 20.24C18.754 20.688 18.1893 21.038 17.536 21.29C16.892 21.542 16.1873 21.668 15.422 21.668ZM15.408 19.736C15.8467 19.736 16.248 19.6613 16.612 19.512C16.9853 19.3627 17.312 19.148 17.592 18.868C17.872 18.588 18.0867 18.2567 18.236 17.874C18.3947 17.4913 18.474 17.0667 18.474 16.6C18.474 16.1333 18.3947 15.7087 18.236 15.326C18.0867 14.9433 17.872 14.612 17.592 14.332C17.3213 14.052 16.9993 13.8373 16.626 13.688C16.2527 13.5387 15.8467 13.464 15.408 13.464C14.9693 13.464 14.5633 13.5387 14.19 13.688C13.826 13.8373 13.504 14.052 13.224 14.332C12.944 14.612 12.7247 14.9433 12.566 15.326C12.4167 15.7087 12.342 16.1333 12.342 16.6C12.342 17.0573 12.4167 17.482 12.566 17.874C12.7247 18.2567 12.9393 18.588 13.21 18.868C13.49 19.148 13.8167 19.3627 14.19 19.512C14.5633 19.6613 14.9693 19.736 15.408 19.736ZM26.8985 13.856C27.4958 13.856 28.0278 13.9773 28.4945 14.22C28.9705 14.4533 29.3438 14.8173 29.6145 15.312C29.8852 15.7973 30.0205 16.4227 30.0205 17.188V21.5H27.8365V17.524C27.8365 16.9173 27.7012 16.4693 27.4305 16.18C27.1692 15.8907 26.7958 15.746 26.3105 15.746C25.9652 15.746 25.6525 15.8207 25.3725 15.97C25.1018 16.11 24.8872 16.3293 24.7285 16.628C24.5792 16.9267 24.5045 17.3093 24.5045 17.776V21.5H22.3205V13.968H24.4065V16.054L24.0145 15.424C24.2852 14.92 24.6725 14.5327 25.1765 14.262C25.6805 13.9913 26.2545 13.856 26.8985 13.856ZM35.5969 24.328C34.8875 24.328 34.2015 24.2393 33.5389 24.062C32.8855 23.894 32.3395 23.6373 31.9009 23.292L32.7689 21.724C33.0862 21.9853 33.4875 22.1907 33.9729 22.34C34.4675 22.4987 34.9529 22.578 35.4289 22.578C36.2035 22.578 36.7635 22.4053 37.1089 22.06C37.4635 21.7147 37.6409 21.2013 37.6409 20.52V19.386L37.7809 17.496L37.7529 15.592V13.968H39.8249V20.24C39.8249 21.64 39.4609 22.6713 38.7329 23.334C38.0049 23.9967 36.9595 24.328 35.5969 24.328ZM35.2609 21.136C34.5609 21.136 33.9262 20.9867 33.3569 20.688C32.7969 20.38 32.3442 19.9553 31.9989 19.414C31.6629 18.8633 31.4949 18.224 31.4949 17.496C31.4949 16.7587 31.6629 16.1193 31.9989 15.578C32.3442 15.0273 32.7969 14.6027 33.3569 14.304C33.9262 14.0053 34.5609 13.856 35.2609 13.856C35.8955 13.856 36.4555 13.9867 36.9409 14.248C37.4262 14.5 37.8042 14.8967 38.0749 15.438C38.3455 15.97 38.4809 16.656 38.4809 17.496C38.4809 18.3267 38.3455 19.0127 38.0749 19.554C37.8042 20.086 37.4262 20.4827 36.9409 20.744C36.4555 21.0053 35.8955 21.136 35.2609 21.136ZM35.6949 19.344C36.0775 19.344 36.4182 19.2693 36.7169 19.12C37.0155 18.9613 37.2489 18.742 37.4169 18.462C37.5849 18.182 37.6689 17.86 37.6689 17.496C37.6689 17.1227 37.5849 16.8007 37.4169 16.53C37.2489 16.25 37.0155 16.0353 36.7169 15.886C36.4182 15.7273 36.0775 15.648 35.6949 15.648C35.3122 15.648 34.9715 15.7273 34.6729 15.886C34.3742 16.0353 34.1362 16.25 33.9589 16.53C33.7909 16.8007 33.7069 17.1227 33.7069 17.496C33.7069 17.86 33.7909 18.182 33.9589 18.462C34.1362 18.742 34.3742 18.9613 34.6729 19.12C34.9715 19.2693 35.3122 19.344 35.6949 19.344ZM45.4416 21.612C44.6389 21.612 43.9249 21.444 43.2996 21.108C42.6836 20.772 42.1936 20.3147 41.8296 19.736C41.4749 19.148 41.2976 18.4807 41.2976 17.734C41.2976 16.978 41.4749 16.3107 41.8296 15.732C42.1936 15.144 42.6836 14.6867 43.2996 14.36C43.9249 14.024 44.6389 13.856 45.4416 13.856C46.2349 13.856 46.9443 14.024 47.5696 14.36C48.1949 14.6867 48.6849 15.1393 49.0396 15.718C49.3943 16.2967 49.5716 16.9687 49.5716 17.734C49.5716 18.4807 49.3943 19.148 49.0396 19.736C48.6849 20.3147 48.1949 20.772 47.5696 21.108C46.9443 21.444 46.2349 21.612 45.4416 21.612ZM45.4416 19.82C45.8056 19.82 46.1323 19.736 46.4216 19.568C46.7109 19.4 46.9396 19.162 47.1076 18.854C47.2756 18.5367 47.3596 18.1633 47.3596 17.734C47.3596 17.2953 47.2756 16.922 47.1076 16.614C46.9396 16.306 46.7109 16.068 46.4216 15.9C46.1323 15.732 45.8056 15.648 45.4416 15.648C45.0776 15.648 44.7509 15.732 44.4616 15.9C44.1723 16.068 43.9389 16.306 43.7616 16.614C43.5936 16.922 43.5096 17.2953 43.5096 17.734C43.5096 18.1633 43.5936 18.5367 43.7616 18.854C43.9389 19.162 44.1723 19.4 44.4616 19.568C44.7509 19.736 45.0776 19.82 45.4416 19.82ZM51.0314 21.5V13.968H53.2154V21.5H51.0314ZM52.1234 12.918C51.7221 12.918 51.3954 12.8013 51.1434 12.568C50.8914 12.3347 50.7654 12.0453 50.7654 11.7C50.7654 11.3547 50.8914 11.0653 51.1434 10.832C51.3954 10.5987 51.7221 10.482 52.1234 10.482C52.5248 10.482 52.8514 10.594 53.1034 10.818C53.3554 11.0327 53.4814 11.3127 53.4814 11.658C53.4814 12.022 53.3554 12.3253 53.1034 12.568C52.8608 12.8013 52.5341 12.918 52.1234 12.918ZM59.8204 13.856C60.4177 13.856 60.9497 13.9773 61.4164 14.22C61.8924 14.4533 62.2657 14.8173 62.5364 15.312C62.807 15.7973 62.9424 16.4227 62.9424 17.188V21.5H60.7584V17.524C60.7584 16.9173 60.623 16.4693 60.3524 16.18C60.091 15.8907 59.7177 15.746 59.2324 15.746C58.887 15.746 58.5744 15.8207 58.2944 15.97C58.0237 16.11 57.809 16.3293 57.6504 16.628C57.501 16.9267 57.4264 17.3093 57.4264 17.776V21.5H55.2424V13.968H57.3284V16.054L56.9364 15.424C57.207 14.92 57.5944 14.5327 58.0984 14.262C58.6024 13.9913 59.1764 13.856 59.8204 13.856ZM68.5188 24.328C67.8094 24.328 67.1234 24.2393 66.4608 24.062C65.8074 23.894 65.2614 23.6373 64.8228 23.292L65.6908 21.724C66.0081 21.9853 66.4094 22.1907 66.8948 22.34C67.3894 22.4987 67.8748 22.578 68.3508 22.578C69.1254 22.578 69.6854 22.4053 70.0308 22.06C70.3854 21.7147 70.5628 21.2013 70.5628 20.52V19.386L70.7028 17.496L70.6748 15.592V13.968H72.7468V20.24C72.7468 21.64 72.3828 22.6713 71.6548 23.334C70.9268 23.9967 69.8814 24.328 68.5188 24.328ZM68.1828 21.136C67.4828 21.136 66.8481 20.9867 66.2788 20.688C65.7188 20.38 65.2661 19.9553 64.9208 19.414C64.5848 18.8633 64.4168 18.224 64.4168 17.496C64.4168 16.7587 64.5848 16.1193 64.9208 15.578C65.2661 15.0273 65.7188 14.6027 66.2788 14.304C66.8481 14.0053 67.4828 13.856 68.1828 13.856C68.8174 13.856 69.3774 13.9867 69.8628 14.248C70.3481 14.5 70.7261 14.8967 70.9968 15.438C71.2674 15.97 71.4028 16.656 71.4028 17.496C71.4028 18.3267 71.2674 19.0127 70.9968 19.554C70.7261 20.086 70.3481 20.4827 69.8628 20.744C69.3774 21.0053 68.8174 21.136 68.1828 21.136ZM68.6168 19.344C68.9994 19.344 69.3401 19.2693 69.6388 19.12C69.9374 18.9613 70.1708 18.742 70.3388 18.462C70.5068 18.182 70.5908 17.86 70.5908 17.496C70.5908 17.1227 70.5068 16.8007 70.3388 16.53C70.1708 16.25 69.9374 16.0353 69.6388 15.886C69.3401 15.7273 68.9994 15.648 68.6168 15.648C68.2341 15.648 67.8934 15.7273 67.5948 15.886C67.2961 16.0353 67.0581 16.25 66.8808 16.53C66.7128 16.8007 66.6288 17.1227 66.6288 17.496C66.6288 17.86 66.7128 18.182 66.8808 18.462C67.0581 18.742 67.2961 18.9613 67.5948 19.12C67.8934 19.2693 68.2341 19.344 68.6168 19.344Z" fill="white"/>
</svg>
